<?xml version="1.0" standalone="no"?>
<!DOCTYPE svg PUBLIC "-//W3C//DTD SVG 1.1//EN" "http://www.w3.org/Graphics/SVG/1.1/DTD/svg11.dtd" >
<svg xmlns="http://www.w3.org/2000/svg" xmlns:xlink="http://www.w3.org/1999/xlink" version="1.1">
<metadata>
Created by FontForge 20200314 at Wed May 16 17:52:19 2007
 By Unknown
Copyright 1990-1999 as an unpublished work by Bitstream Inc.  All rights reserved.  Confidential.
</metadata>
<defs>
<font id="PrimaSansBT-Bold" horiz-adv-x="500" >
  <font-face 
    font-family="Prima Sans"
    font-weight="900"
    font-stretch="normal"
    units-per-em="1000"
    panose-1="0 0 0 0 0 0 0 0 0 0"
    ascent="800"
    descent="-200"
    x-height="547"
    cap-height="729"
    bbox="-199 -236 1417 1060"
    underline-thickness="126"
    underline-position="-174"
    stemh="125"
    stemv="175"
    unicode-range="U+0020-FB02"
  />
<missing-glyph horiz-adv-x="348" 
 />
    <glyph glyph-name=".notdef" horiz-adv-x="348" 
 />
    <glyph glyph-name="space" unicode=" " horiz-adv-x="348" 
 />
    <glyph glyph-name="exclam" unicode="!" horiz-adv-x="456" 
d="M140 174h176v-174h-176v174zM140 729h176v-280l-25 -204h-126l-25 204v280z" />
    <glyph glyph-name="quotedbl" unicode="&#x22;" horiz-adv-x="521" 
d="M211 729v-271h-116v271h116zM426 729v-271h-116v271h116z" />
    <glyph glyph-name="numbersign" unicode="#" horiz-adv-x="838" 
d="M500 426h-129l-34 -134h129zM445 718l-47 -188h129l47 188h108l-47 -188h135v-104h-161l-34 -134h139v-105h-164l-47 -187h-108l47 187h-129l-47 -187h-109l47 187h-136v105h160l34 134h-138v104h165l47 188h109z" />
    <glyph glyph-name="dollar" unicode="$" horiz-adv-x="696" 
d="M388 249v-136c57 1 85 22 85 65c0 46 -26 65 -85 71zM309 408v128c-48 -3 -76 -29 -76 -62c0 -38 25 -60 76 -66zM388 -147h-79v147c-82 3 -158 18 -230 45v128c74 -38 150 -59 230 -62v152l-16 3c-148 26 -215 76 -215 191c0 116 81 184 231 190v113h79v-111
c64 -5 129 -16 196 -34v-124c-66 28 -131 43 -196 46v-140l16 -3c153 -24 224 -72 224 -200c0 -120 -79 -184 -240 -193v-148z" />
    <glyph glyph-name="percent" unicode="%" horiz-adv-x="1002" 
d="M227 660c-46 0 -73 -41 -73 -116c0 -76 27 -117 73 -117s73 41 73 117c0 75 -27 116 -73 116zM227 742c121 0 195 -75 195 -198s-74 -199 -195 -199s-195 76 -195 199s74 198 195 198zM327 -14h-108l456 756h108zM775 383c121 0 195 -75 195 -198s-74 -199 -195 -199
s-196 76 -196 199s75 198 196 198zM775 301c-46 0 -73 -41 -73 -116c0 -76 27 -116 73 -116s72 40 72 116c0 75 -26 116 -72 116z" />
    <glyph glyph-name="ampersand" unicode="&#x26;" horiz-adv-x="872" 
d="M293 363c-43 -31 -64 -70 -64 -116c0 -75 64 -135 141 -135c44 0 81 13 114 40zM390 484l200 -220c35 47 52 104 55 173h152c-10 -119 -46 -210 -110 -280l143 -157h-207l-48 53c-68 -45 -143 -67 -228 -67c-174 0 -287 102 -287 242c0 98 47 166 149 233
c-27 34 -40 68 -40 106c0 104 87 175 227 175c58 0 122 -9 193 -28v-136c-59 30 -113 46 -167 46c-51 0 -79 -21 -79 -55c0 -22 15 -50 47 -85z" />
    <glyph glyph-name="quoteright" unicode="&#x2019;" horiz-adv-x="380" 
d="M112 729h166v-139l-111 -172h-104l49 172v139z" />
    <glyph glyph-name="parenleft" unicode="(" horiz-adv-x="457" 
d="M377 -132h-145c-96 155 -146 297 -146 445c0 147 50 291 146 446h145c-83 -153 -125 -300 -125 -445s42 -292 125 -446z" />
    <glyph glyph-name="parenright" unicode=")" horiz-adv-x="457" 
d="M80 -132c83 154 125 301 125 446s-42 292 -125 445h145c96 -155 146 -299 146 -446c0 -148 -50 -290 -146 -445h-145z" />
    <glyph glyph-name="asterisk" unicode="*" horiz-adv-x="523" 
d="M503 594l-161 -84l161 -85l-37 -69l-163 90v-168h-83v168l-163 -90l-37 69l163 85l-163 84l37 69l163 -89v168h83v-168l163 89z" />
    <glyph glyph-name="plus" unicode="+" horiz-adv-x="838" 
d="M477 627v-256h255v-115h-255v-256h-116v256h-255v115h255v256h116z" />
    <glyph glyph-name="comma" unicode="," horiz-adv-x="380" 
d="M102 189h176v-149l-121 -182h-104l49 182v149z" />
    <glyph glyph-name="hyphen" unicode="-" horiz-adv-x="415" 
d="M54 359h307v-142h-307v142z" />
    <glyph glyph-name="period" unicode="." horiz-adv-x="380" 
d="M102 189h176v-189h-176v189z" />
    <glyph glyph-name="slash" unicode="/" horiz-adv-x="365" 
d="M257 729h108l-257 -822h-108z" />
    <glyph glyph-name="zero" unicode="0" horiz-adv-x="696" 
d="M648 364c0 -244 -110 -378 -300 -378s-300 134 -300 378s110 378 300 378s300 -134 300 -378zM460 365c0 171 -26 249 -112 249s-112 -78 -112 -249s26 -251 112 -251s112 80 112 251z" />
    <glyph glyph-name="one" unicode="1" horiz-adv-x="696" 
d="M117 130h166v471l-170 -35v128l169 35h179v-599h166v-130h-510v130z" />
    <glyph glyph-name="two" unicode="2" horiz-adv-x="696" 
d="M288 138h321v-138h-530v138l266 235c47 42 70 82 70 127c0 68 -49 114 -126 114c-58 0 -128 -25 -208 -75v160c86 29 169 43 247 43c178 0 276 -83 276 -218c0 -101 -62 -163 -160 -249z" />
    <glyph glyph-name="three" unicode="3" horiz-adv-x="696" 
d="M466 393c98 -25 150 -89 150 -186c0 -143 -110 -221 -325 -221c-74 0 -150 12 -224 36v145c70 -35 140 -53 207 -53c101 0 154 36 154 100c0 66 -54 101 -161 101h-75v121h79c94 0 140 29 140 90c0 55 -45 88 -129 88c-61 0 -123 -14 -184 -41v138c76 21 149 31 218 31
c189 0 283 -62 283 -187c0 -85 -45 -140 -133 -162z" />
    <glyph glyph-name="four" unicode="4" horiz-adv-x="696" 
d="M337 729h209v-460h104v-136h-104v-133h-178v133h-323v161zM368 574l-206 -305h206v305z" />
    <glyph glyph-name="five" unicode="5" horiz-adv-x="696" 
d="M106 729h467v-138h-317v-113c28 8 57 12 88 12c179 0 282 -94 282 -252c0 -155 -111 -252 -305 -252c-83 0 -164 16 -244 48v148c79 -45 150 -68 214 -68c92 0 147 48 147 124s-55 124 -147 124c-56 0 -117 -15 -185 -43v410z" />
    <glyph glyph-name="six" unicode="6" horiz-adv-x="696" 
d="M594 710v-135c-59 28 -113 43 -167 43c-112 0 -175 -62 -186 -185c44 33 94 48 152 48c150 0 249 -96 249 -237c0 -153 -107 -258 -282 -258c-188 0 -298 131 -298 368c0 243 131 387 341 387c66 0 129 -10 191 -31zM362 360c-66 0 -99 -43 -99 -128s33 -128 99 -128
s99 43 99 128s-33 128 -99 128z" />
    <glyph glyph-name="seven" unicode="7" horiz-adv-x="696" 
d="M67 729h549v-106l-284 -623h-183l269 591h-351v138z" />
    <glyph glyph-name="eight" unicode="8" horiz-adv-x="696" 
d="M255 534c0 -58 34 -90 93 -90s93 32 93 90s-34 90 -93 90s-93 -32 -93 -90zM211 388c-89 27 -134 83 -134 165c0 123 93 189 271 189s271 -66 271 -189c0 -82 -46 -138 -135 -165c99 -27 150 -89 150 -183c0 -144 -96 -219 -286 -219s-287 75 -287 219
c0 94 51 156 150 183zM348 326c-70 0 -109 -39 -109 -111s39 -111 109 -111s108 39 108 111s-38 111 -108 111z" />
    <glyph glyph-name="nine" unicode="9" horiz-adv-x="696" 
d="M332 367c66 0 99 43 99 128s-33 128 -99 128s-99 -43 -99 -128s33 -128 99 -128zM100 16v135c59 -28 113 -42 167 -42c112 0 175 62 186 185c-44 -33 -94 -49 -152 -49c-150 0 -249 96 -249 237c0 153 106 259 281 259c188 0 299 -131 299 -368
c0 -243 -132 -387 -342 -387c-66 0 -128 9 -190 30z" />
    <glyph glyph-name="colon" unicode=":" horiz-adv-x="400" 
d="M112 189h176v-189h-176v189zM112 547h176v-189h-176v189z" />
    <glyph glyph-name="semicolon" unicode=";" horiz-adv-x="400" 
d="M112 547h176v-189h-176v189zM112 189h176v-149l-121 -182h-104l49 182v149z" />
    <glyph glyph-name="less" unicode="&#x3c;" horiz-adv-x="838" 
d="M732 475l-471 -162l471 -161v-122l-626 226v115l626 226v-122z" />
    <glyph glyph-name="equal" unicode="=" horiz-adv-x="838" 
d="M106 260h626v-116h-626v116zM106 482h626v-115h-626v115z" />
    <glyph glyph-name="greater" unicode="&#x3e;" horiz-adv-x="838" 
d="M106 475v122l626 -226v-115l-626 -226v122l471 161z" />
    <glyph glyph-name="question" unicode="?" horiz-adv-x="580" 
d="M170 174h176v-174h-176v174zM346 246h-176v24c0 67 31 101 84 150l31 28c36 33 54 62 54 93c0 45 -32 73 -89 73c-51 0 -113 -21 -181 -65v153c71 25 136 40 202 40c160 0 244 -67 244 -190c0 -69 -27 -114 -84 -167l-31 -28c-33 -30 -54 -52 -54 -89v-22z" />
    <glyph glyph-name="at" unicode="@" horiz-adv-x="1000" 
d="M606 116c-20 -47 -66 -73 -123 -73c-111 0 -189 88 -189 219s78 220 189 220c57 0 103 -27 123 -74v64h102v-338c79 12 130 80 130 184c0 65 -19 122 -57 170c-62 79 -158 124 -267 124c-75 0 -145 -20 -204 -59c-97 -64 -153 -171 -153 -288c0 -97 36 -184 102 -249
c65 -64 151 -98 247 -98c82 0 170 33 228 85l52 -79c-82 -64 -181 -98 -279 -98c-121 0 -230 44 -313 125c-84 82 -128 192 -128 314c0 118 45 229 128 311c82 81 196 127 313 127c146 0 268 -57 348 -162c49 -64 74 -140 74 -221c0 -175 -109 -279 -304 -279h-19v75z
M406 263c0 -82 38 -129 95 -129c56 0 95 47 95 129c0 81 -39 128 -96 128c-56 0 -94 -47 -94 -128z" />
    <glyph glyph-name="A" unicode="A" horiz-adv-x="774" 
d="M287 268h200l-100 290zM534 133h-294l-46 -133h-189l270 729h224l270 -729h-189z" />
    <glyph glyph-name="B" unicode="B" horiz-adv-x="762" 
d="M565 390c80 -23 127 -89 127 -181c0 -141 -95 -209 -288 -209h-312v729h282c197 0 288 -54 288 -193c0 -71 -34 -122 -97 -146zM390 128c76 0 114 32 114 96s-38 95 -114 95h-110v-191h110zM384 447c59 0 90 26 90 77c0 50 -31 77 -90 77h-104v-154h104z" />
    <glyph glyph-name="C" unicode="C" horiz-adv-x="734" 
d="M670 40c-69 -36 -144 -54 -225 -54c-244 0 -395 146 -395 378s151 378 395 378c81 0 156 -18 225 -54v-151c-69 47 -134 69 -210 69c-132 0 -216 -89 -216 -242s84 -242 216 -242c76 0 141 22 210 69v-151z" />
    <glyph glyph-name="D" unicode="D" horiz-adv-x="830" 
d="M92 729h198c172 0 291 -11 387 -104c68 -66 101 -151 101 -260s-33 -195 -101 -261c-96 -92 -215 -104 -387 -104h-198v729zM280 587v-445h67c155 0 237 79 237 223s-82 222 -237 222h-67z" />
    <glyph glyph-name="E" unicode="E" horiz-adv-x="683" 
d="M92 729h507v-142h-319v-136h300v-142h-300v-167h330v-142h-518v729z" />
    <glyph glyph-name="F" unicode="F" horiz-adv-x="683" 
d="M92 729h507v-142h-319v-136h300v-142h-300v-309h-188v729z" />
    <glyph glyph-name="G" unicode="G" horiz-adv-x="821" 
d="M747 54c-93 -45 -194 -68 -302 -68c-244 0 -395 146 -395 378c0 233 152 378 405 378c97 0 186 -18 265 -54v-151c-81 46 -161 69 -242 69c-150 0 -234 -87 -234 -242s82 -242 225 -242c39 0 73 5 100 15v142h-115v126h293v-351z" />
    <glyph glyph-name="H" unicode="H" horiz-adv-x="837" 
d="M92 729h188v-278h277v278h188v-729h-188v309h-277v-309h-188v729z" />
    <glyph glyph-name="I" unicode="I" horiz-adv-x="372" 
d="M92 729h188v-729h-188v729z" />
    <glyph glyph-name="J" unicode="J" horiz-adv-x="372" 
d="M92 729h188v-658c0 -182 -98 -271 -298 -271h-38v142h29c78 0 119 44 119 129v658z" />
    <glyph glyph-name="K" unicode="K" horiz-adv-x="775" 
d="M92 729h188v-266l271 266h218l-351 -345l387 -384h-235l-290 287v-287h-188v729z" />
    <glyph glyph-name="L" unicode="L" horiz-adv-x="637" 
d="M92 729h188v-587h330v-142h-518v729z" />
    <glyph glyph-name="M" unicode="M" horiz-adv-x="995" 
d="M92 729h239l166 -390l167 390h239v-729h-178v533l-168 -393h-119l-168 393v-533h-178v729z" />
    <glyph glyph-name="N" unicode="N" horiz-adv-x="837" 
d="M92 729h210l265 -500v500h178v-729h-210l-265 500v-500h-178v729z" />
    <glyph glyph-name="O" unicode="O" horiz-adv-x="850" 
d="M425 742c234 0 375 -142 375 -378s-141 -378 -375 -378s-375 142 -375 378s141 378 375 378zM425 606c-113 0 -181 -86 -181 -242s68 -242 181 -242s181 86 181 242s-68 242 -181 242z" />
    <glyph glyph-name="P" unicode="P" horiz-adv-x="733" 
d="M280 593v-204h104c73 0 114 37 114 102s-41 102 -114 102h-104zM92 729h312c186 0 288 -86 288 -238s-102 -238 -288 -238h-124v-253h-188v729z" />
    <glyph glyph-name="Q" unicode="Q" horiz-adv-x="850" 
d="M425 606c-113 0 -181 -86 -181 -242s68 -242 181 -242s181 86 181 242s-68 242 -181 242zM445 -13h-15c-240 0 -380 140 -380 377c0 236 141 378 375 378s375 -142 375 -378c0 -169 -71 -288 -204 -346l147 -164h-179z" />
    <glyph glyph-name="R" unicode="R" horiz-adv-x="770" 
d="M280 276v-276h-188v729h287c189 0 278 -60 278 -201c0 -96 -46 -158 -140 -187c56 -13 93 -57 131 -134l102 -207h-200l-89 181c-34 69 -63 95 -128 95h-53zM359 406c77 0 110 26 110 94s-33 93 -110 93h-79v-187h79z" />
    <glyph glyph-name="S" unicode="S" horiz-adv-x="720" 
d="M599 706v-154c-81 36 -158 54 -225 54c-89 0 -132 -24 -132 -76c0 -43 32 -60 101 -74l80 -16c155 -31 224 -88 224 -216c0 -161 -94 -238 -290 -238c-92 0 -185 17 -279 52v159c93 -50 180 -75 261 -75c83 0 127 29 127 79c0 54 -37 70 -111 86l-73 16
c-143 31 -210 95 -210 213c0 145 96 226 272 226c81 0 165 -12 255 -36z" />
    <glyph glyph-name="T" unicode="T" horiz-adv-x="682" 
d="M5 729h672v-142h-242v-587h-188v587h-242v142z" />
    <glyph glyph-name="U" unicode="U" horiz-adv-x="812" 
d="M92 729h188v-437c0 -116 33 -168 126 -168s126 52 126 168v437h188v-437c0 -206 -102 -306 -314 -306s-314 100 -314 306v437z" />
    <glyph glyph-name="V" unicode="V" horiz-adv-x="774" 
d="M5 729h189l193 -538l193 538h189l-270 -729h-224z" />
    <glyph glyph-name="W" unicode="W" horiz-adv-x="1103" 
d="M30 729h180l126 -530l125 530h181l125 -530l126 530h179l-172 -729h-217l-132 554l-131 -554h-217z" />
    <glyph glyph-name="X" unicode="X" horiz-adv-x="771" 
d="M498 372l253 -372h-196l-170 249l-169 -249h-197l253 372l-243 357h196l160 -235l159 235h197z" />
    <glyph glyph-name="Y" unicode="Y" horiz-adv-x="724" 
d="M-10 729h206l166 -260l166 260h206l-278 -422v-307h-188v307z" />
    <glyph glyph-name="Z" unicode="Z" horiz-adv-x="725" 
d="M56 729h613v-114l-391 -473h402v-142h-635v114l391 473h-380v142z" />
    <glyph glyph-name="bracketleft" unicode="[" horiz-adv-x="457" 
d="M86 760h303v-110h-137v-672h137v-110h-303v892z" />
    <glyph glyph-name="backslash" unicode="\" horiz-adv-x="365" 
d="M257 -93l-257 822h108l257 -822h-108z" />
    <glyph glyph-name="bracketright" unicode="]" horiz-adv-x="457" 
d="M371 -132h-303v110h137v672h-137v110h303v-892z" />
    <glyph glyph-name="asciicircum" unicode="^" horiz-adv-x="838" 
d="M479 729l258 -272h-118l-200 147l-200 -147h-118l258 272h120z" />
    <glyph glyph-name="underscore" unicode="_" 
d="M500 -143v-93h-500v93h500z" />
    <glyph glyph-name="quoteleft" unicode="&#x2018;" horiz-adv-x="380" 
d="M269 418h-166v139l111 172h104l-49 -172v-139z" />
    <glyph glyph-name="a" unicode="a" horiz-adv-x="675" 
d="M596 312v-312h-176v81c-48 -68 -104 -95 -186 -95c-115 0 -191 74 -191 178c0 130 88 186 274 186h103v14c0 56 -44 80 -135 80c-75 0 -139 -15 -194 -45v133c76 19 152 28 226 28c196 0 279 -72 279 -248zM329 246c-73 0 -110 -25 -110 -73c0 -43 30 -71 84 -71
c66 0 117 53 117 124v20h-91z" />
    <glyph glyph-name="b" unicode="b" horiz-adv-x="716" 
d="M259 467c48 64 105 93 181 93c132 0 231 -115 231 -287s-99 -287 -231 -287c-76 0 -133 29 -181 93v-79h-175v760h175v-293zM375 113c74 0 115 55 115 160s-41 160 -115 160s-116 -55 -116 -160s42 -160 116 -160z" />
    <glyph glyph-name="c" unicode="c" horiz-adv-x="593" 
d="M526 530v-143c-47 32 -94 48 -146 48c-97 0 -155 -59 -155 -162s58 -162 155 -162c56 0 105 17 148 48v-143c-57 -20 -114 -30 -170 -30c-199 0 -315 108 -315 287s116 287 315 287c54 0 110 -9 168 -30z" />
    <glyph glyph-name="d" unicode="d" horiz-adv-x="716" 
d="M341 113c74 0 115 55 115 160s-41 160 -115 160s-115 -55 -115 -160s41 -160 115 -160zM456 467v293h176v-760h-176v79c-48 -64 -104 -93 -180 -93c-132 0 -231 115 -231 287s99 287 231 287c74 0 131 -28 180 -93z" />
    <glyph glyph-name="e" unicode="e" horiz-adv-x="678" 
d="M450 333c0 67 -43 111 -105 111c-67 0 -111 -39 -122 -111h227zM630 275v-50h-409c9 -82 60 -123 151 -123c74 0 151 22 232 66v-135c-82 -31 -165 -47 -248 -47c-199 0 -313 106 -313 287c0 178 114 287 303 287c172 0 284 -112 284 -285z" />
    <glyph glyph-name="f" unicode="f" horiz-adv-x="435" 
d="M444 760v-115h-97c-47 0 -66 -14 -66 -60v-38h149v-125h-149v-422h-175v422h-87v125h87v38c0 120 66 175 204 175h134z" />
    <glyph glyph-name="g" unicode="g" horiz-adv-x="716" 
d="M341 433c-72 0 -115 -55 -115 -153s43 -153 115 -153s115 55 115 153s-43 153 -115 153zM456 93c-48 -64 -104 -93 -180 -93c-131 0 -231 114 -231 280s100 279 231 279c76 0 132 -29 180 -93v81h176v-492c0 -174 -112 -271 -325 -271c-67 0 -130 10 -195 32v136
c61 -35 119 -52 178 -52c114 0 166 48 166 155v38z" />
    <glyph glyph-name="h" unicode="h" horiz-adv-x="712" 
d="M634 333v-333h-176v254c0 72 -1 117 -14 138c-14 23 -38 36 -68 36c-71 0 -117 -57 -117 -159v-269h-175v760h175v-293c52 63 110 93 182 93c125 0 193 -78 193 -227z" />
    <glyph glyph-name="i" unicode="i" horiz-adv-x="343" 
d="M84 760h175v-143h-175v143zM84 547h175v-547h-175v547z" />
    <glyph glyph-name="j" unicode="j" horiz-adv-x="343" 
d="M84 760h175v-143h-175v143zM84 547h175v-537c0 -147 -72 -226 -206 -226h-86v115h30c72 0 87 30 87 111v537z" />
    <glyph glyph-name="k" unicode="k" horiz-adv-x="665" 
d="M84 760h175v-414l201 201h203l-267 -251l288 -296h-212l-213 228v-228h-175v760z" />
    <glyph glyph-name="l" unicode="l" horiz-adv-x="343" 
d="M84 760h175v-760h-175v760z" />
    <glyph glyph-name="m" unicode="m" horiz-adv-x="1042" 
d="M591 456c44 68 106 104 179 104c125 0 193 -78 193 -227v-333h-176v285c1 12 1 23 1 33c0 75 -20 110 -72 110c-66 0 -104 -55 -105 -159v-269h-176v285c0 92 -4 143 -71 143c-66 0 -105 -55 -105 -159v-269h-176v547h176v-80c43 62 99 93 166 93c75 0 136 -38 166 -104z
" />
    <glyph glyph-name="n" unicode="n" horiz-adv-x="712" 
d="M634 333v-333h-176v255c0 71 -1 116 -14 137c-14 23 -38 36 -68 36c-71 0 -117 -57 -117 -159v-269h-175v547h175v-80c52 63 110 93 182 93c125 0 193 -78 193 -227z" />
    <glyph glyph-name="o" unicode="o" horiz-adv-x="687" 
d="M344 560c189 0 300 -108 300 -287s-111 -287 -300 -287s-301 108 -301 287s112 287 301 287zM344 435c-76 0 -119 -56 -119 -162s43 -162 119 -162s118 56 118 162c0 105 -42 162 -118 162z" />
    <glyph glyph-name="p" unicode="p" horiz-adv-x="716" 
d="M375 433c-74 0 -116 -55 -116 -160s42 -160 116 -160s115 55 115 160s-41 160 -115 160zM259 79v-287h-175v755h175v-80c48 64 105 93 181 93c132 0 231 -115 231 -287s-99 -287 -231 -287c-76 0 -133 29 -181 93z" />
    <glyph glyph-name="q" unicode="q" horiz-adv-x="716" 
d="M456 79c-48 -64 -104 -93 -180 -93c-132 0 -231 115 -231 287s99 286 231 286c76 0 132 -29 180 -93v81h176v-755h-176v287zM341 433c-74 0 -115 -55 -115 -160s41 -160 115 -160s115 55 115 160s-41 160 -115 160z" />
    <glyph glyph-name="r" unicode="r" horiz-adv-x="493" 
d="M490 398c-30 14 -60 21 -91 21c-89 0 -140 -58 -140 -167v-252h-175v547h175v-90c45 72 101 103 182 103c17 0 33 -2 49 -4v-158z" />
    <glyph glyph-name="s" unicode="s" horiz-adv-x="595" 
d="M511 530v-131c-79 31 -149 45 -207 45c-65 0 -98 -16 -98 -51c0 -31 27 -42 84 -49l31 -4c155 -20 227 -52 227 -179c0 -116 -86 -175 -257 -175c-71 0 -148 11 -231 34v133c70 -34 143 -51 219 -51c68 0 103 19 103 56s-30 46 -89 53l-31 4c-144 18 -210 59 -210 174
c0 117 79 171 242 171c69 0 140 -11 217 -30z" />
    <glyph glyph-name="t" unicode="t" horiz-adv-x="478" 
d="M275 702v-155h180v-125h-180v-232c0 -53 18 -65 75 -65h90v-125h-150c-138 0 -190 52 -190 190v232h-87v125h87v155h175z" />
    <glyph glyph-name="u" unicode="u" horiz-adv-x="712" 
d="M78 213v334h176v-55c0 -81 -1 -149 -1 -201c0 -71 2 -116 15 -137c14 -23 38 -36 68 -36c71 0 117 57 117 159v270h175v-547h-175v79c-52 -63 -109 -93 -181 -93c-125 0 -194 78 -194 227z" />
    <glyph glyph-name="v" unicode="v" horiz-adv-x="652" 
d="M15 547h175l136 -378l136 378h175l-215 -547h-192z" />
    <glyph glyph-name="w" unicode="w" horiz-adv-x="924" 
d="M35 547h170l92 -377l92 377h146l92 -373l92 373h170l-144 -547h-191l-92 376l-92 -376h-191z" />
    <glyph glyph-name="x" unicode="x" horiz-adv-x="645" 
d="M222 280l-197 267h185l112 -162l113 162h185l-197 -266l207 -281h-185l-123 173l-122 -173h-185z" />
    <glyph glyph-name="y" unicode="y" horiz-adv-x="652" 
d="M12 547h175l147 -371l125 371h175l-230 -599c-43 -112 -94 -164 -203 -164h-101v115h55c55 0 80 13 96 65l5 15z" />
    <glyph glyph-name="z" unicode="z" horiz-adv-x="582" 
d="M57 547h477v-122l-288 -300h288v-125h-489v122l288 300h-276v125z" />
    <glyph glyph-name="braceleft" unicode="{" horiz-adv-x="712" 
d="M587 -53v-110h-106c-143 0 -204 55 -204 180v94c0 99 -31 130 -122 130h-30v109h30c91 0 122 31 122 130v100c0 125 61 180 204 180h106v-110h-34c-91 0 -110 -19 -110 -112v-81c0 -95 -21 -141 -98 -158c77 -19 98 -64 98 -159v-81c0 -93 19 -112 110 -112h34z" />
    <glyph glyph-name="bar" unicode="|" horiz-adv-x="365" 
d="M238 764v-1000h-111v1000h111z" />
    <glyph glyph-name="braceright" unicode="}" horiz-adv-x="712" 
d="M125 -53h34c91 0 110 19 110 112v81c0 95 21 140 98 159c-77 17 -98 63 -98 158v81c0 93 -19 112 -110 112h-34v110h106c143 0 204 -55 204 -180v-100c0 -99 31 -130 122 -130h30v-109h-30c-91 0 -122 -31 -122 -130v-94c0 -125 -61 -180 -204 -180h-106v110z" />
    <glyph glyph-name="asciitilde" unicode="~" horiz-adv-x="838" 
d="M732 415v-119c-64 -48 -119 -73 -186 -73c-58 0 -98 19 -133 33c-41 16 -82 34 -132 34c-60 0 -114 -26 -175 -78v119c64 48 119 73 186 73c58 0 98 -19 133 -33c41 -16 82 -34 132 -34c60 0 113 27 175 78z" />
    <glyph glyph-name="exclamdown" unicode="&#xa1;" horiz-adv-x="456" 
d="M140 555v174h176v-174h-176zM140 0v280l25 204h126l25 -204v-280h-176z" />
    <glyph glyph-name="cent" unicode="&#xa2;" horiz-adv-x="696" 
d="M567 530v-143c-49 32 -96 48 -138 48h-7v-324c57 1 107 17 148 48v-143c-58 -20 -106 -30 -143 -30h-5v-139h-79v141c-171 26 -258 125 -258 293c0 158 89 255 258 278v140h79v-140c49 -2 96 -12 145 -29zM343 419c-52 -29 -76 -77 -76 -146c0 -70 24 -118 76 -146v292z
" />
    <glyph glyph-name="sterling" unicode="&#xa3;" horiz-adv-x="696" 
d="M607 716v-140c-47 26 -95 38 -144 38c-77 0 -113 -40 -113 -125v-83h182v-117h-182v-159h263v-130h-552v130h111v159h-95v117h95v83c0 176 79 253 258 253c58 0 117 -8 177 -26z" />
    <glyph glyph-name="fraction" unicode="&#x2044;" horiz-adv-x="167" 
d="M-90 -14h-109l456 756h109z" />
    <glyph glyph-name="yen" unicode="&#xa5;" horiz-adv-x="696" 
d="M663 203h-222v-203h-186v203h-222v95h222v32l-24 42h-198v94h143l-164 263h195l141 -225l141 225h195l-164 -263h143v-94h-198l-24 -42v-32h222v-95z" />
    <glyph glyph-name="florin" unicode="&#x192;" horiz-adv-x="696" 
d="M652 740v-124c-30 19 -57 28 -84 28c-64 0 -90 -42 -106 -125l-16 -82h139v-116h-162l-65 -329c-27 -134 -101 -200 -225 -200c-44 0 -87 7 -130 20v124c30 -19 57 -28 84 -28c63 0 89 42 106 125l57 288h-118v116h141l25 123c27 134 100 200 224 200c44 0 87 -7 130 -20
z" />
    <glyph glyph-name="section" unicode="&#xa7;" 
d="M212 418c-44 -18 -66 -42 -66 -75c0 -51 50 -77 149 -113c43 15 66 42 66 75c0 47 -49 78 -149 113zM432 714v-111c-64 25 -116 38 -153 38c-49 0 -74 -16 -74 -47c0 -36 40 -49 111 -79c118 -50 180 -96 180 -189c0 -76 -36 -127 -112 -158c50 -27 74 -63 74 -111
c0 -92 -80 -152 -222 -152c-58 0 -117 10 -180 28v116c79 -28 138 -41 173 -41c44 0 70 19 70 44c0 39 -44 51 -115 81c-117 50 -177 99 -177 193c0 68 36 118 109 151c-48 33 -68 66 -68 116c0 92 77 149 210 149c53 0 112 -9 174 -28z" />
    <glyph glyph-name="currency" unicode="&#xa4;" horiz-adv-x="696" 
d="M629 40c-62 -36 -130 -54 -202 -54c-171 0 -291 87 -340 247h-106l43 95h48c-1 13 -1 25 -1 36s0 23 1 37h-91l43 95h63c50 160 169 246 340 246c72 0 140 -18 202 -54v-151c-53 51 -113 77 -178 77c-82 0 -142 -41 -171 -118h263l-42 -95h-241c-1 -15 -1 -29 -1 -43
c0 -3 0 -13 1 -30h209l-43 -95h-146c32 -79 89 -119 171 -119c66 0 124 26 178 77v-151z" />
    <glyph glyph-name="quotesingle" unicode="'" horiz-adv-x="306" 
d="M211 729v-271h-116v271h116z" />
    <glyph glyph-name="quotedblleft" unicode="&#x201c;" horiz-adv-x="657" 
d="M269 418h-166v139l111 172h104l-49 -172v-139zM516 418h-166v138l111 173h104l-49 -173v-138z" />
    <glyph glyph-name="guillemotleft" unicode="&#xab;" horiz-adv-x="646" 
d="M552 519v-118l-143 -108l143 -108v-118l-241 180v91zM318 519v-118l-143 -108l143 -108v-118l-241 180v91z" />
    <glyph glyph-name="guilsinglleft" unicode="&#x2039;" horiz-adv-x="412" 
d="M318 519v-118l-143 -108l143 -108v-118l-241 180v91z" />
    <glyph glyph-name="guilsinglright" unicode="&#x203a;" horiz-adv-x="412" 
d="M94 519l241 -181v-91l-241 -180v118l143 108l-143 108v118z" />
    <glyph glyph-name="fi" unicode="&#xfb01;" horiz-adv-x="741" 
d="M445 760v-115h-97c-47 0 -65 -14 -65 -60v-38h374v-547h-176v422h-198v-422h-176v422h-86v125h86v38c0 120 66 175 204 175h134zM481 760h176v-143h-176v143z" />
    <glyph glyph-name="fl" unicode="&#xfb02;" horiz-adv-x="741" 
d="M310 760h347v-760h-176v645h-134c-47 0 -66 -14 -66 -60v-38h137v-125h-137v-422h-175v422h-87v125h87v38c0 120 66 175 204 175z" />
    <glyph glyph-name="endash" unicode="&#x2013;" 
d="M0 337h500v-126h-500v126z" />
    <glyph glyph-name="dagger" unicode="&#x2020;" 
d="M167 729h161v-186h142v-116h-142v-523h-161v523h-141v116h141v186z" />
    <glyph glyph-name="daggerdbl" unicode="&#x2021;" 
d="M167 729h161v-186h142v-116h-142v-221h142v-116h-142v-186h-161v186h-142v116h142v221h-141v116h141v186z" />
    <glyph glyph-name="periodcentered" unicode="&#xb7;" horiz-adv-x="380" 
d="M102 442h176v-189h-176v189z" />
    <glyph glyph-name="paragraph" unicode="&#xb6;" horiz-adv-x="636" 
d="M295 729h254v-825h-93v753h-92v-753h-93v413c-134 16 -208 91 -208 206c0 122 90 206 232 206z" />
    <glyph glyph-name="bullet" unicode="&#x2022;" horiz-adv-x="639" 
d="M144 372c0 47 17 91 51 124s77 51 125 51c47 0 91 -18 124 -51c34 -34 51 -77 51 -124s-17 -91 -51 -125s-78 -51 -125 -51c-48 0 -91 18 -124 51s-51 77 -51 125z" />
    <glyph glyph-name="quotesinglbase" unicode="&#x201a;" horiz-adv-x="380" 
d="M121 189h166v-139l-112 -172h-103l49 172v139z" />
    <glyph glyph-name="quotedblbase" unicode="&#x201e;" horiz-adv-x="657" 
d="M368 189h166v-140l-111 -171h-104l49 171v140zM121 189h166v-139l-112 -172h-103l49 172v139z" />
    <glyph glyph-name="quotedblright" unicode="&#x201d;" horiz-adv-x="657" 
d="M388 729h166v-140l-111 -171h-104l49 171v140zM141 729h166v-139l-111 -172h-104l49 172v139z" />
    <glyph glyph-name="guillemotright" unicode="&#xbb;" horiz-adv-x="646" 
d="M94 519l240 -181v-91l-240 -180v118l143 108l-143 108v118zM328 519l241 -181v-91l-241 -180v118l143 108l-143 108v118z" />
    <glyph glyph-name="ellipsis" unicode="&#x2026;" horiz-adv-x="1000" 
d="M412 189h176v-189h-176v189zM79 189h176v-189h-176v189zM745 189h176v-189h-176v189z" />
    <glyph glyph-name="perthousand" unicode="&#x2030;" horiz-adv-x="1440" 
d="M775 301c-46 0 -73 -41 -73 -116c0 -76 27 -116 73 -116s72 40 72 116c0 75 -26 116 -72 116zM775 383c121 0 195 -75 195 -198s-74 -199 -195 -199s-196 76 -196 199s75 198 196 198zM327 -14h-108l456 756h108zM227 742c121 0 195 -75 195 -198s-74 -199 -195 -199
s-195 76 -195 199s74 198 195 198zM227 660c-46 0 -73 -41 -73 -116c0 -76 27 -117 73 -117s73 41 73 117c0 75 -27 116 -73 116zM1222 383c121 0 195 -75 195 -198s-74 -199 -195 -199s-196 76 -196 199s75 198 196 198zM1222 301c-46 0 -73 -41 -73 -116
c0 -76 27 -116 73 -116s72 40 72 116c0 75 -26 116 -72 116z" />
    <glyph glyph-name="questiondown" unicode="&#xbf;" horiz-adv-x="580" 
d="M414 555h-176v174h176v-174zM238 482h176v-24c0 -67 -32 -101 -85 -150l-31 -28c-36 -33 -53 -62 -53 -93c0 -45 32 -73 89 -73c51 0 113 21 181 65v-153c-71 -25 -137 -40 -202 -40c-160 0 -244 67 -244 190c0 69 27 114 84 167l31 28c33 30 54 52 54 89v22z" />
    <glyph glyph-name="grave" unicode="`" 
d="M184 800l138 -184h-96l-180 184h138z" />
    <glyph glyph-name="acute" unicode="&#xb4;" 
d="M316 800h138l-180 -184h-96z" />
    <glyph glyph-name="circumflex" unicode="&#x2c6;" 
d="M191 800h118l125 -184h-87l-97 110l-97 -110h-87z" />
    <glyph glyph-name="tilde" unicode="&#x2dc;" 
d="M251 666l-27 18c-14 9 -26 18 -40 18c-23 0 -36 -20 -36 -59v-4h-68c0 90 36 139 96 139c25 0 48 -10 73 -28l30 -21c14 -10 26 -15 36 -15c23 0 37 21 37 59v4h68c0 -90 -36 -139 -96 -139c-29 0 -50 12 -73 28z" />
    <glyph glyph-name="macron" unicode="&#xaf;" 
d="M96 760h308v-92h-308v92z" />
    <glyph glyph-name="breve" unicode="&#x2d8;" 
d="M86 784h70c7 -45 40 -70 94 -70s87 25 94 70h70c-4 -93 -62 -145 -164 -145s-160 52 -164 145z" />
    <glyph glyph-name="dotaccent" unicode="&#x2d9;" 
d="M183 774h134v-120h-134v120z" />
    <glyph glyph-name="dieresis" unicode="&#xa8;" 
d="M289 774h115v-120h-115v120zM96 774h115v-120h-115v120z" />
    <glyph glyph-name="ring" unicode="&#x2da;" 
d="M111 749c0 77 62 139 139 139s139 -62 139 -139s-62 -139 -139 -139s-139 62 -139 139zM186 749c0 -36 29 -64 64 -64c36 0 64 29 64 64s-29 64 -64 64c-36 0 -64 -29 -64 -64z" />
    <glyph glyph-name="cedilla" unicode="&#xb8;" 
d="M294 0c36 -39 55 -73 55 -105c0 -62 -40 -91 -122 -91c-30 0 -63 4 -99 13v76c29 -11 57 -17 81 -17c39 0 60 17 60 42c0 18 -15 45 -43 82h68z" />
    <glyph glyph-name="hungarumlaut" unicode="&#x2dd;" 
d="M366 800h113l-133 -184h-85zM189 800h106l-121 -184h-80z" />
    <glyph glyph-name="ogonek" unicode="&#x2db;" 
d="M221 0h69c-27 -36 -44 -61 -44 -81c0 -25 21 -43 54 -43c25 0 50 5 76 15v-76c-34 -7 -65 -11 -93 -11c-75 0 -116 32 -116 87c0 35 18 70 54 109z" />
    <glyph glyph-name="caron" unicode="&#x2c7;" 
d="M191 616l-125 184h87l97 -111l97 111h87l-125 -184h-118z" />
    <glyph glyph-name="emdash" unicode="&#x2014;" horiz-adv-x="1000" 
d="M0 337h1000v-126h-1000v126z" />
    <glyph glyph-name="AE" unicode="&#xc6;" horiz-adv-x="1085" 
d="M305 729h696v-142h-319v-136h300v-142h-300v-167h330v-142h-518v171h-241l-72 -171h-181zM435 604l-125 -298h184v298h-59z" />
    <glyph glyph-name="ordfeminine" unicode="&#xaa;" horiz-adv-x="564" 
d="M489 569v-219h-120v62c-33 -46 -76 -72 -141 -72c-95 0 -151 47 -151 122c0 94 69 133 213 133h67v10c0 36 -29 56 -85 56c-58 0 -112 -12 -162 -34v88c60 18 115 27 164 27c146 0 215 -56 215 -173zM314 528c-77 0 -116 -11 -116 -56c0 -33 23 -53 61 -53
c59 0 99 43 99 98v11h-44zM86 280h397v-98h-397v98z" />
    <glyph glyph-name="Lslash" unicode="&#x141;" horiz-adv-x="642" 
d="M97 729h188v-203l124 90l70 -94l-194 -133v-247h330v-142h-518v256l-72 -52l-70 93l142 96v336z" />
    <glyph glyph-name="Oslash" unicode="&#xd8;" horiz-adv-x="850" 
d="M122 119c-48 65 -72 146 -72 245c0 236 141 378 375 378c98 0 178 -23 246 -74l97 97l55 -56l-98 -97c50 -65 75 -148 75 -248c0 -236 -141 -378 -375 -378c-99 0 -182 25 -249 77l-99 -99l-55 55zM553 550c-33 38 -75 56 -128 56c-113 0 -181 -86 -181 -242
c0 -43 5 -80 14 -109zM295 181c34 -40 76 -59 130 -59c113 0 181 86 181 242c0 44 -5 82 -15 114z" />
    <glyph glyph-name="OE" unicode="&#x152;" horiz-adv-x="1167" 
d="M532 729h551v-142h-319v-136h300v-142h-300v-167h330v-142h-562c-12 0 -23 -1 -35 -1c-291 0 -447 134 -447 366s156 365 447 365c11 0 23 -1 35 -1zM576 587h-51c-188 0 -281 -73 -281 -222s93 -223 281 -223h51v445z" />
    <glyph glyph-name="ordmasculine" unicode="&#xba;" horiz-adv-x="564" 
d="M282 659c-54 0 -85 -42 -85 -118s31 -117 85 -117s85 41 85 117s-31 118 -85 118zM81 280h402v-98h-402v98zM282 742c140 0 225 -78 225 -201s-85 -200 -225 -200s-225 77 -225 200s85 201 225 201z" />
    <glyph glyph-name="ae" unicode="&#xe6;" horiz-adv-x="1048" 
d="M91 532c80 19 153 28 214 28c97 0 167 -24 214 -76c50 50 117 76 197 76c172 0 284 -112 284 -285v-50h-409c9 -82 60 -123 151 -123c74 0 151 22 232 66v-135c-82 -31 -165 -47 -248 -47c-119 0 -206 37 -252 101c-65 -69 -135 -101 -226 -101c-129 0 -205 71 -205 178
c0 130 88 186 274 186h103v14c0 56 -44 80 -135 80c-75 0 -139 -15 -194 -45v133zM329 246c-73 0 -110 -25 -110 -73c0 -43 30 -71 84 -71c66 0 117 53 117 124v20h-91zM820 333c0 67 -43 111 -105 111c-67 0 -110 -39 -121 -111h226z" />
    <glyph glyph-name="dotlessi" unicode="&#x131;" horiz-adv-x="343" 
d="M84 547h175v-547h-175v547z" />
    <glyph glyph-name="lslash" unicode="&#x142;" horiz-adv-x="371" 
d="M97 760h176v-245l63 43l54 -75l-117 -80v-403h-176v313l-61 -42l-54 75l115 80v334z" />
    <glyph glyph-name="oslash" unicode="&#xf8;" horiz-adv-x="687" 
d="M109 77c-44 51 -66 116 -66 196c0 179 112 287 301 287c69 0 127 -14 176 -43l72 77l53 -49l-69 -73c46 -52 68 -118 68 -199c0 -179 -111 -287 -300 -287c-69 0 -128 14 -179 44l-72 -76l-55 46zM267 140c19 -18 44 -29 77 -29c76 0 118 56 118 162c0 26 -2 48 -7 68z
M418 408c-19 18 -43 27 -74 27c-76 0 -119 -56 -119 -162c0 -25 2 -46 7 -65z" />
    <glyph glyph-name="oe" unicode="&#x153;" horiz-adv-x="1094" 
d="M344 435c-76 0 -119 -56 -119 -162s43 -162 119 -162s118 56 118 162c0 105 -42 162 -118 162zM1046 275v-50h-409c9 -82 60 -123 151 -123c74 0 151 22 232 66v-135c-82 -31 -166 -47 -248 -47c-102 0 -171 22 -220 82c-53 -54 -122 -82 -208 -82
c-189 0 -301 108 -301 287s112 287 301 287c87 0 153 -26 206 -82c54 58 117 82 203 82c182 0 293 -110 293 -285zM866 333c0 67 -43 111 -105 111c-67 0 -111 -39 -122 -111h227z" />
    <glyph glyph-name="germandbls" unicode="&#xdf;" horiz-adv-x="719" 
d="M84 544c0 145 88 216 265 216c171 0 259 -74 259 -216v-35c-97 -6 -144 -30 -144 -79c0 -32 26 -47 69 -71l34 -18c75 -42 109 -95 109 -171c0 -123 -74 -184 -225 -184c-42 0 -87 8 -135 24v119c39 -19 77 -27 110 -27c48 0 78 27 78 63c0 40 -28 57 -75 83l-34 19
c-57 32 -84 75 -84 134c0 76 45 126 139 158c-1 56 -33 85 -92 85c-66 0 -99 -36 -99 -107v-537h-175v544z" />
    <glyph glyph-name="Aacute" unicode="&#xc1;" horiz-adv-x="774" 
d="M287 268h200l-100 290zM534 133h-294l-46 -133h-189l270 729h224l270 -729h-189zM441 982h138l-180 -184h-96z" />
    <glyph glyph-name="Acircumflex" unicode="&#xc2;" horiz-adv-x="774" 
d="M287 268h200l-100 290zM534 133h-294l-46 -133h-189l270 729h224l270 -729h-189zM316 982h118l125 -184h-87l-97 110l-97 -110h-87z" />
    <glyph glyph-name="Adieresis" unicode="&#xc4;" horiz-adv-x="774" 
d="M287 268h200l-100 290zM534 133h-294l-46 -133h-189l270 729h224l270 -729h-189zM414 956h115v-120h-115v120zM221 956h115v-120h-115v120z" />
    <glyph glyph-name="Agrave" unicode="&#xc0;" horiz-adv-x="774" 
d="M287 268h200l-100 290zM534 133h-294l-46 -133h-189l270 729h224l270 -729h-189zM309 982l138 -184h-96l-180 184h138z" />
    <glyph glyph-name="Aring" unicode="&#xc5;" horiz-adv-x="774" 
d="M287 268h200l-100 290zM534 133h-294l-46 -133h-189l270 729h224l270 -729h-189zM323 921c0 -36 29 -64 64 -64c36 0 64 29 64 64s-29 64 -64 64c-36 0 -64 -29 -64 -64zM248 921c0 77 62 139 139 139s139 -62 139 -139s-62 -139 -139 -139s-139 62 -139 139z" />
    <glyph glyph-name="Atilde" unicode="&#xc3;" horiz-adv-x="774" 
d="M287 268h200l-100 290zM534 133h-294l-46 -133h-189l270 729h224l270 -729h-189zM376 848l-27 18c-14 9 -26 18 -40 18c-23 0 -36 -20 -36 -59v-4h-68c0 90 36 139 96 139c25 0 48 -10 73 -28l30 -21c14 -10 26 -15 36 -15c23 0 37 21 37 59v4h68
c0 -90 -36 -139 -96 -139c-29 0 -50 12 -73 28z" />
    <glyph glyph-name="Ccedilla" unicode="&#xc7;" horiz-adv-x="734" 
d="M670 40c-69 -36 -144 -54 -225 -54c-244 0 -395 146 -395 378s151 378 395 378c81 0 156 -18 225 -54v-151c-69 47 -134 69 -210 69c-132 0 -216 -89 -216 -242s84 -242 216 -242c76 0 141 22 210 69v-151zM475 0c36 -39 55 -73 55 -105c0 -62 -40 -91 -122 -91
c-30 0 -63 4 -99 13v76c29 -11 57 -17 81 -17c39 0 60 17 60 42c0 18 -15 45 -43 82h68z" />
    <glyph glyph-name="Eacute" unicode="&#xc9;" horiz-adv-x="683" 
d="M92 729h507v-142h-319v-136h300v-142h-300v-167h330v-142h-518v729zM404 982h138l-180 -184h-96z" />
    <glyph glyph-name="Ecircumflex" unicode="&#xca;" horiz-adv-x="683" 
d="M92 729h507v-142h-319v-136h300v-142h-300v-167h330v-142h-518v729zM279 982h118l125 -184h-87l-97 110l-97 -110h-87z" />
    <glyph glyph-name="Edieresis" unicode="&#xcb;" horiz-adv-x="683" 
d="M92 729h507v-142h-319v-136h300v-142h-300v-167h330v-142h-518v729zM377 956h115v-120h-115v120zM184 956h115v-120h-115v120z" />
    <glyph glyph-name="Egrave" unicode="&#xc8;" horiz-adv-x="683" 
d="M92 729h507v-142h-319v-136h300v-142h-300v-167h330v-142h-518v729zM272 982l138 -184h-96l-180 184h138z" />
    <glyph glyph-name="Eth" unicode="&#xd0;" horiz-adv-x="838" 
d="M101 729h198c172 0 291 -11 387 -104c68 -66 101 -151 101 -260s-33 -195 -101 -261c-96 -92 -215 -104 -387 -104h-198v303h-85v127h85v299zM289 587v-157h115v-127h-115v-161h67c155 0 237 79 237 223s-82 222 -237 222h-67z" />
    <glyph glyph-name="Euro" unicode="&#x20ac;" horiz-adv-x="696" 
d="M629 40c-62 -36 -130 -54 -202 -54c-171 0 -291 87 -340 247h-106l43 95h48c-1 13 -1 25 -1 36s0 23 1 37h-91l43 95h63c50 160 169 246 340 246c72 0 140 -18 202 -54v-151c-53 51 -113 77 -178 77c-82 0 -142 -41 -171 -118h263l-42 -95h-241c-1 -15 -1 -29 -1 -43
c0 -3 0 -13 1 -30h209l-43 -95h-146c32 -79 89 -119 171 -119c66 0 124 26 178 77v-151z" />
    <glyph glyph-name="Iacute" unicode="&#xcd;" horiz-adv-x="372" 
d="M92 729h188v-729h-188v729zM240 982h138l-180 -184h-96z" />
    <glyph glyph-name="Icircumflex" unicode="&#xce;" horiz-adv-x="372" 
d="M92 729h188v-729h-188v729zM115 982h118l125 -184h-87l-97 110l-97 -110h-87z" />
    <glyph glyph-name="Idieresis" unicode="&#xcf;" horiz-adv-x="372" 
d="M92 729h188v-729h-188v729zM213 956h115v-120h-115v120zM20 956h115v-120h-115v120z" />
    <glyph glyph-name="Igrave" unicode="&#xcc;" horiz-adv-x="372" 
d="M92 729h188v-729h-188v729zM108 982l138 -184h-96l-180 184h138z" />
    <glyph glyph-name="Ntilde" unicode="&#xd1;" horiz-adv-x="837" 
d="M92 729h210l265 -500v500h178v-729h-210l-265 500v-500h-178v729zM402 848l-27 18c-14 9 -26 18 -40 18c-23 0 -36 -20 -36 -59v-4h-68c0 90 36 139 96 139c25 0 48 -10 73 -28l30 -21c14 -10 26 -15 36 -15c23 0 37 21 37 59v4h68c0 -90 -36 -139 -96 -139
c-29 0 -50 12 -73 28z" />
    <glyph glyph-name="Oacute" unicode="&#xd3;" horiz-adv-x="850" 
d="M425 742c234 0 375 -142 375 -378s-141 -378 -375 -378s-375 142 -375 378s141 378 375 378zM425 606c-113 0 -181 -86 -181 -242s68 -242 181 -242s181 86 181 242s-68 242 -181 242zM479 982h138l-180 -184h-96z" />
    <glyph glyph-name="Ocircumflex" unicode="&#xd4;" horiz-adv-x="850" 
d="M425 742c234 0 375 -142 375 -378s-141 -378 -375 -378s-375 142 -375 378s141 378 375 378zM425 606c-113 0 -181 -86 -181 -242s68 -242 181 -242s181 86 181 242s-68 242 -181 242zM354 982h118l125 -184h-87l-97 110l-97 -110h-87z" />
    <glyph glyph-name="Odieresis" unicode="&#xd6;" horiz-adv-x="850" 
d="M425 742c234 0 375 -142 375 -378s-141 -378 -375 -378s-375 142 -375 378s141 378 375 378zM425 606c-113 0 -181 -86 -181 -242s68 -242 181 -242s181 86 181 242s-68 242 -181 242zM452 956h115v-120h-115v120zM259 956h115v-120h-115v120z" />
    <glyph glyph-name="Ograve" unicode="&#xd2;" horiz-adv-x="850" 
d="M425 742c234 0 375 -142 375 -378s-141 -378 -375 -378s-375 142 -375 378s141 378 375 378zM425 606c-113 0 -181 -86 -181 -242s68 -242 181 -242s181 86 181 242s-68 242 -181 242zM347 982l138 -184h-96l-180 184h138z" />
    <glyph glyph-name="Otilde" unicode="&#xd5;" horiz-adv-x="850" 
d="M425 742c234 0 375 -142 375 -378s-141 -378 -375 -378s-375 142 -375 378s141 378 375 378zM425 606c-113 0 -181 -86 -181 -242s68 -242 181 -242s181 86 181 242s-68 242 -181 242zM414 848l-27 18c-14 9 -26 18 -40 18c-23 0 -36 -20 -36 -59v-4h-68
c0 90 36 139 96 139c25 0 48 -10 73 -28l30 -21c14 -10 26 -15 36 -15c23 0 37 21 37 59v4h68c0 -90 -36 -139 -96 -139c-29 0 -50 12 -73 28z" />
    <glyph glyph-name="Scaron" unicode="&#x160;" horiz-adv-x="720" 
d="M599 706v-154c-81 36 -158 54 -225 54c-89 0 -132 -24 -132 -76c0 -43 32 -60 101 -74l80 -16c155 -31 224 -88 224 -216c0 -161 -94 -238 -290 -238c-92 0 -185 17 -279 52v159c93 -50 180 -75 261 -75c83 0 127 29 127 79c0 54 -37 70 -111 86l-73 16
c-143 31 -210 95 -210 213c0 145 96 226 272 226c81 0 165 -12 255 -36zM289 798l-125 184h87l97 -111l97 111h87l-125 -184h-118z" />
    <glyph glyph-name="Thorn" unicode="&#xde;" horiz-adv-x="738" 
d="M280 467v-205h104c73 0 114 37 114 102s-41 103 -114 103h-104zM280 126v-126h-188v729h188v-127h124c186 0 288 -86 288 -238s-102 -238 -288 -238h-124z" />
    <glyph glyph-name="Uacute" unicode="&#xda;" horiz-adv-x="812" 
d="M92 729h188v-437c0 -116 33 -168 126 -168s126 52 126 168v437h188v-437c0 -206 -102 -306 -314 -306s-314 100 -314 306v437zM460 982h138l-180 -184h-96z" />
    <glyph glyph-name="Ucircumflex" unicode="&#xdb;" horiz-adv-x="812" 
d="M92 729h188v-437c0 -116 33 -168 126 -168s126 52 126 168v437h188v-437c0 -206 -102 -306 -314 -306s-314 100 -314 306v437zM335 982h118l125 -184h-87l-97 110l-97 -110h-87z" />
    <glyph glyph-name="Udieresis" unicode="&#xdc;" horiz-adv-x="812" 
d="M92 729h188v-437c0 -116 33 -168 126 -168s126 52 126 168v437h188v-437c0 -206 -102 -306 -314 -306s-314 100 -314 306v437zM433 956h115v-120h-115v120zM240 956h115v-120h-115v120z" />
    <glyph glyph-name="Ugrave" unicode="&#xd9;" horiz-adv-x="812" 
d="M92 729h188v-437c0 -116 33 -168 126 -168s126 52 126 168v437h188v-437c0 -206 -102 -306 -314 -306s-314 100 -314 306v437zM328 982l138 -184h-96l-180 184h138z" />
    <glyph glyph-name="Yacute" unicode="&#xdd;" horiz-adv-x="724" 
d="M-10 729h206l166 -260l166 260h206l-278 -422v-307h-188v307zM416 982h138l-180 -184h-96z" />
    <glyph glyph-name="Ydieresis" unicode="&#x178;" horiz-adv-x="724" 
d="M-10 729h206l166 -260l166 260h206l-278 -422v-307h-188v307zM389 956h115v-120h-115v120zM196 956h115v-120h-115v120z" />
    <glyph glyph-name="Zcaron" unicode="&#x17d;" horiz-adv-x="725" 
d="M56 729h613v-114l-391 -473h402v-142h-635v114l391 473h-380v142zM292 798l-125 184h87l97 -111l97 111h87l-125 -184h-118z" />
    <glyph glyph-name="aacute" unicode="&#xe1;" horiz-adv-x="675" 
d="M596 312v-312h-176v81c-48 -68 -104 -95 -186 -95c-115 0 -191 74 -191 178c0 130 88 186 274 186h103v14c0 56 -44 80 -135 80c-75 0 -139 -15 -194 -45v133c76 19 152 28 226 28c196 0 279 -72 279 -248zM329 246c-73 0 -110 -25 -110 -73c0 -43 30 -71 84 -71
c66 0 117 53 117 124v20h-91zM407 800h138l-180 -184h-96z" />
    <glyph glyph-name="acircumflex" unicode="&#xe2;" horiz-adv-x="675" 
d="M596 312v-312h-176v81c-48 -68 -104 -95 -186 -95c-115 0 -191 74 -191 178c0 130 88 186 274 186h103v14c0 56 -44 80 -135 80c-75 0 -139 -15 -194 -45v133c76 19 152 28 226 28c196 0 279 -72 279 -248zM329 246c-73 0 -110 -25 -110 -73c0 -43 30 -71 84 -71
c66 0 117 53 117 124v20h-91zM282 800h118l125 -184h-87l-97 110l-97 -110h-87z" />
    <glyph glyph-name="adieresis" unicode="&#xe4;" horiz-adv-x="675" 
d="M596 312v-312h-176v81c-48 -68 -104 -95 -186 -95c-115 0 -191 74 -191 178c0 130 88 186 274 186h103v14c0 56 -44 80 -135 80c-75 0 -139 -15 -194 -45v133c76 19 152 28 226 28c196 0 279 -72 279 -248zM329 246c-73 0 -110 -25 -110 -73c0 -43 30 -71 84 -71
c66 0 117 53 117 124v20h-91zM380 774h115v-120h-115v120zM187 774h115v-120h-115v120z" />
    <glyph glyph-name="agrave" unicode="&#xe0;" horiz-adv-x="675" 
d="M596 312v-312h-176v81c-48 -68 -104 -95 -186 -95c-115 0 -191 74 -191 178c0 130 88 186 274 186h103v14c0 56 -44 80 -135 80c-75 0 -139 -15 -194 -45v133c76 19 152 28 226 28c196 0 279 -72 279 -248zM329 246c-73 0 -110 -25 -110 -73c0 -43 30 -71 84 -71
c66 0 117 53 117 124v20h-91zM275 800l138 -184h-96l-180 184h138z" />
    <glyph glyph-name="aring" unicode="&#xe5;" horiz-adv-x="675" 
d="M596 312v-312h-176v81c-48 -68 -104 -95 -186 -95c-115 0 -191 74 -191 178c0 130 88 186 274 186h103v14c0 56 -44 80 -135 80c-75 0 -139 -15 -194 -45v133c76 19 152 28 226 28c196 0 279 -72 279 -248zM329 246c-73 0 -110 -25 -110 -73c0 -43 30 -71 84 -71
c66 0 117 53 117 124v20h-91zM202 749c0 77 62 139 139 139s139 -62 139 -139s-62 -139 -139 -139s-139 62 -139 139zM277 749c0 -36 29 -64 64 -64c36 0 64 29 64 64s-29 64 -64 64c-36 0 -64 -29 -64 -64z" />
    <glyph glyph-name="atilde" unicode="&#xe3;" horiz-adv-x="675" 
d="M596 312v-312h-176v81c-48 -68 -104 -95 -186 -95c-115 0 -191 74 -191 178c0 130 88 186 274 186h103v14c0 56 -44 80 -135 80c-75 0 -139 -15 -194 -45v133c76 19 152 28 226 28c196 0 279 -72 279 -248zM329 246c-73 0 -110 -25 -110 -73c0 -43 30 -71 84 -71
c66 0 117 53 117 124v20h-91zM342 666l-27 18c-14 9 -26 18 -40 18c-23 0 -36 -20 -36 -59v-4h-68c0 90 36 139 96 139c25 0 48 -10 73 -28l30 -21c14 -10 26 -15 36 -15c23 0 37 21 37 59v4h68c0 -90 -36 -139 -96 -139c-29 0 -50 12 -73 28z" />
    <glyph glyph-name="brokenbar" unicode="&#xa6;" horiz-adv-x="365" 
d="M238 199v-370h-111v370h111zM238 699v-370h-111v370h111z" />
    <glyph glyph-name="ccedilla" unicode="&#xe7;" horiz-adv-x="593" 
d="M526 530v-143c-47 32 -94 48 -146 48c-97 0 -155 -59 -155 -162s58 -162 155 -162c56 0 105 17 148 48v-143c-57 -20 -114 -30 -170 -30c-199 0 -315 108 -315 287s116 287 315 287c54 0 110 -9 168 -30zM384 0c36 -39 55 -73 55 -105c0 -62 -40 -91 -122 -91
c-30 0 -63 4 -99 13v76c29 -11 57 -17 81 -17c39 0 60 17 60 42c0 18 -15 45 -43 82h68z" />
    <glyph glyph-name="copyright" unicode="&#xa9;" horiz-adv-x="1000" 
d="M500 725c99 0 185 -36 256 -107s106 -157 106 -256s-35 -184 -106 -255s-157 -107 -256 -107s-185 36 -256 107s-106 156 -106 255s35 185 106 256s157 107 256 107zM500 650c-78 0 -146 -28 -203 -85s-85 -124 -85 -203s28 -146 85 -203c56 -56 124 -84 203 -84
s146 27 203 84s85 124 85 203s-28 146 -85 203s-124 85 -203 85zM646 550v-105c-36 23 -71 35 -110 35c-73 0 -117 -44 -117 -118c0 -75 43 -118 117 -118c42 0 80 12 112 35v-104c-43 -14 -86 -22 -128 -22c-138 0 -227 83 -227 209s89 209 227 209c42 0 84 -6 126 -21z
" />
    <glyph glyph-name="degree" unicode="&#xb0;" 
d="M250 749c43 0 84 -17 115 -48s47 -71 47 -115c0 -43 -16 -84 -46 -114c-31 -31 -73 -48 -117 -48c-92 0 -162 70 -162 162s71 163 163 163zM250 670c-47 0 -84 -37 -84 -84s37 -83 84 -83s84 37 84 83c0 47 -38 84 -84 84z" />
    <glyph glyph-name="divide" unicode="&#xf7;" horiz-adv-x="838" 
d="M106 371h626v-115h-626v115zM344 585h150v-151h-150v151zM344 193h150v-151h-150v151z" />
    <glyph glyph-name="eacute" unicode="&#xe9;" horiz-adv-x="678" 
d="M450 333c0 67 -43 111 -105 111c-67 0 -111 -39 -122 -111h227zM630 275v-50h-409c9 -82 60 -123 151 -123c74 0 151 22 232 66v-135c-82 -31 -165 -47 -248 -47c-199 0 -313 106 -313 287c0 178 114 287 303 287c172 0 284 -112 284 -285zM422 800h138l-180 -184h-96z
" />
    <glyph glyph-name="ecircumflex" unicode="&#xea;" horiz-adv-x="678" 
d="M450 333c0 67 -43 111 -105 111c-67 0 -111 -39 -122 -111h227zM630 275v-50h-409c9 -82 60 -123 151 -123c74 0 151 22 232 66v-135c-82 -31 -165 -47 -248 -47c-199 0 -313 106 -313 287c0 178 114 287 303 287c172 0 284 -112 284 -285zM297 800h118l125 -184h-87
l-97 110l-97 -110h-87z" />
    <glyph glyph-name="edieresis" unicode="&#xeb;" horiz-adv-x="678" 
d="M450 333c0 67 -43 111 -105 111c-67 0 -111 -39 -122 -111h227zM630 275v-50h-409c9 -82 60 -123 151 -123c74 0 151 22 232 66v-135c-82 -31 -165 -47 -248 -47c-199 0 -313 106 -313 287c0 178 114 287 303 287c172 0 284 -112 284 -285zM395 774h115v-120h-115v120z
M202 774h115v-120h-115v120z" />
    <glyph glyph-name="egrave" unicode="&#xe8;" horiz-adv-x="678" 
d="M450 333c0 67 -43 111 -105 111c-67 0 -111 -39 -122 -111h227zM630 275v-50h-409c9 -82 60 -123 151 -123c74 0 151 22 232 66v-135c-82 -31 -165 -47 -248 -47c-199 0 -313 106 -313 287c0 178 114 287 303 287c172 0 284 -112 284 -285zM290 800l138 -184h-96
l-180 184h138z" />
    <glyph glyph-name="eth" unicode="&#xf0;" horiz-adv-x="687" 
d="M535 537c71 -82 109 -161 109 -264c0 -179 -111 -287 -300 -287s-301 108 -301 287c0 149 102 242 276 242c29 0 54 -4 78 -13l-93 107l-182 -58l-18 63l150 47l-92 99h172l54 -57l184 56l17 -63l-150 -48zM449 363c-35 17 -70 26 -105 26c-76 0 -119 -45 -119 -124
c0 -96 45 -154 119 -154c76 0 118 56 118 162c0 28 -4 58 -13 90z" />
    <glyph glyph-name="iacute" unicode="&#xed;" horiz-adv-x="343" 
d="M84 547h175v-547h-175v547zM249 800h138l-180 -184h-96z" />
    <glyph glyph-name="icircumflex" unicode="&#xee;" horiz-adv-x="343" 
d="M84 547h175v-547h-175v547zM124 800h118l125 -184h-87l-97 110l-97 -110h-87z" />
    <glyph glyph-name="idieresis" unicode="&#xef;" horiz-adv-x="343" 
d="M84 547h175v-547h-175v547zM222 774h115v-120h-115v120zM29 774h115v-120h-115v120z" />
    <glyph glyph-name="igrave" unicode="&#xec;" horiz-adv-x="343" 
d="M84 547h175v-547h-175v547zM117 800l138 -184h-96l-180 184h138z" />
    <glyph glyph-name="logicalnot" unicode="&#xac;" horiz-adv-x="838" 
d="M106 444h626v-304h-115v188h-511v116z" />
    <glyph glyph-name="minus" unicode="&#x2212;" horiz-adv-x="838" 
d="M106 371h626v-115h-626v115z" />
    <glyph glyph-name="mu" unicode="&#xb5;" horiz-adv-x="736" 
d="M85 -209v756h176v-318c0 -75 32 -112 99 -112s99 37 99 112v318h176v-366c0 -43 8 -62 35 -62c11 0 21 3 34 11v-122c-32 -14 -62 -22 -93 -22c-58 0 -93 23 -116 77c-30 -51 -74 -77 -132 -77c-48 0 -82 15 -102 46v-241h-176z" />
    <glyph glyph-name="multiply" unicode="&#xd7;" horiz-adv-x="838" 
d="M713 525l-212 -212l212 -211l-82 -82l-212 211l-212 -211l-82 82l212 211l-212 212l82 82l212 -212l212 212z" />
    <glyph glyph-name="ntilde" unicode="&#xf1;" horiz-adv-x="712" 
d="M634 333v-333h-176v255c0 71 -1 116 -14 137c-14 23 -38 36 -68 36c-71 0 -117 -57 -117 -159v-269h-175v547h175v-80c52 63 110 93 182 93c125 0 193 -78 193 -227zM369 666l-27 18c-14 9 -26 18 -40 18c-23 0 -36 -20 -36 -59v-4h-68c0 90 36 139 96 139
c25 0 48 -10 73 -28l30 -21c14 -10 26 -15 36 -15c23 0 37 21 37 59v4h68c0 -90 -36 -139 -96 -139c-29 0 -50 12 -73 28z" />
    <glyph glyph-name="oacute" unicode="&#xf3;" horiz-adv-x="687" 
d="M344 560c189 0 300 -108 300 -287s-111 -287 -300 -287s-301 108 -301 287s112 287 301 287zM344 435c-76 0 -119 -56 -119 -162s43 -162 119 -162s118 56 118 162c0 105 -42 162 -118 162zM421 800h138l-180 -184h-96z" />
    <glyph glyph-name="ocircumflex" unicode="&#xf4;" horiz-adv-x="687" 
d="M344 560c189 0 300 -108 300 -287s-111 -287 -300 -287s-301 108 -301 287s112 287 301 287zM344 435c-76 0 -119 -56 -119 -162s43 -162 119 -162s118 56 118 162c0 105 -42 162 -118 162zM296 800h118l125 -184h-87l-97 110l-97 -110h-87z" />
    <glyph glyph-name="odieresis" unicode="&#xf6;" horiz-adv-x="687" 
d="M344 560c189 0 300 -108 300 -287s-111 -287 -300 -287s-301 108 -301 287s112 287 301 287zM344 435c-76 0 -119 -56 -119 -162s43 -162 119 -162s118 56 118 162c0 105 -42 162 -118 162zM394 774h115v-120h-115v120zM201 774h115v-120h-115v120z" />
    <glyph glyph-name="ograve" unicode="&#xf2;" horiz-adv-x="687" 
d="M344 560c189 0 300 -108 300 -287s-111 -287 -300 -287s-301 108 -301 287s112 287 301 287zM344 435c-76 0 -119 -56 -119 -162s43 -162 119 -162s118 56 118 162c0 105 -42 162 -118 162zM289 800l138 -184h-96l-180 184h138z" />
    <glyph glyph-name="onehalf" unicode="&#xbd;" horiz-adv-x="1035" 
d="M58 403h100v254l-109 -25v78l112 24h109v-331h100v-77h-312v77zM358 -14h-109l456 756h109zM805 82h182v-82h-330v75l154 131c35 30 55 54 55 83c0 32 -26 55 -65 55c-43 0 -88 -16 -140 -45v91c56 17 108 26 158 26c107 0 165 -47 165 -116c0 -56 -31 -92 -84 -137z" />
    <glyph glyph-name="onequarter" unicode="&#xbc;" horiz-adv-x="1035" 
d="M58 403h100v254l-109 -25v78l112 24h109v-331h100v-77h-312v77zM358 -14h-109l456 756h109zM769 408h121v-253h67v-76h-67v-79h-112v79h-191v82zM778 313l-117 -158h117v158z" />
    <glyph glyph-name="onesuperior" unicode="&#xb9;" horiz-adv-x="438" 
d="M69 403h101v254l-110 -25v78l112 24h110v-331h100v-77h-313v77z" />
    <glyph glyph-name="otilde" unicode="&#xf5;" horiz-adv-x="687" 
d="M344 560c189 0 300 -108 300 -287s-111 -287 -300 -287s-301 108 -301 287s112 287 301 287zM344 435c-76 0 -119 -56 -119 -162s43 -162 119 -162s118 56 118 162c0 105 -42 162 -118 162zM356 666l-27 18c-14 9 -26 18 -40 18c-23 0 -36 -20 -36 -59v-4h-68
c0 90 36 139 96 139c25 0 48 -10 73 -28l30 -21c14 -10 26 -15 36 -15c23 0 37 21 37 59v4h68c0 -90 -36 -139 -96 -139c-29 0 -50 12 -73 28z" />
    <glyph glyph-name="plusminus" unicode="&#xb1;" horiz-adv-x="838" 
d="M106 116h626v-116h-626v116zM477 627v-173h255v-115h-255v-173h-116v173h-255v115h255v173h116z" />
    <glyph glyph-name="registered" unicode="&#xae;" horiz-adv-x="1000" 
d="M500 725c99 0 185 -36 256 -107s106 -157 106 -256s-35 -184 -106 -255s-157 -107 -256 -107s-185 36 -256 107s-106 156 -106 255s35 185 106 256s157 107 256 107zM490 573c115 0 171 -38 171 -117c0 -55 -35 -94 -98 -105c27 -14 50 -40 69 -78l54 -108h-112l-52 104
c-22 45 -40 70 -61 70h-6v-174h-104v408h139zM472 506h-17v-101h17c51 0 77 17 77 51s-25 50 -77 50zM500 650c-78 0 -146 -28 -203 -85s-85 -124 -85 -203s28 -146 85 -203c56 -56 124 -84 203 -84s146 27 203 84s85 124 85 203s-28 146 -85 203s-124 85 -203 85z" />
    <glyph glyph-name="scaron" unicode="&#x161;" horiz-adv-x="595" 
d="M511 530v-131c-79 31 -149 45 -207 45c-65 0 -98 -16 -98 -51c0 -31 27 -42 84 -49l31 -4c155 -20 227 -52 227 -179c0 -116 -86 -175 -257 -175c-71 0 -148 11 -231 34v133c70 -34 143 -51 219 -51c68 0 103 19 103 56s-30 46 -89 53l-31 4c-144 18 -210 59 -210 174
c0 117 79 171 242 171c69 0 140 -11 217 -30zM239 616l-125 184h87l97 -111l97 111h87l-125 -184h-118z" />
    <glyph glyph-name="thorn" unicode="&#xfe;" horiz-adv-x="716" 
d="M375 433c-74 0 -116 -55 -116 -160s42 -160 116 -160s115 55 115 160s-41 160 -115 160zM259 79v-287h-175v968h175v-293c48 64 105 93 181 93c132 0 231 -115 231 -287s-99 -287 -231 -287c-76 0 -133 29 -181 93z" />
    <glyph glyph-name="threequarters" unicode="&#xbe;" horiz-adv-x="1035" 
d="M358 -14h-109l456 756h109zM296 547c61 -12 95 -50 95 -102c0 -85 -65 -126 -195 -126c-52 0 -100 7 -145 22v85c43 -24 85 -36 124 -36c63 0 97 23 97 60c0 43 -35 61 -108 61h-36v67h41c62 0 92 14 92 48c0 30 -26 44 -77 44c-35 0 -75 -9 -120 -26v81
c45 12 95 17 148 17c111 0 168 -39 168 -106c0 -44 -30 -77 -84 -89zM778 313l-117 -158h117v158zM769 408h121v-253h67v-76h-67v-79h-112v79h-191v82z" />
    <glyph glyph-name="threesuperior" unicode="&#xb3;" horiz-adv-x="438" 
d="M289 547c61 -12 95 -50 95 -102c0 -85 -65 -126 -195 -126c-52 0 -100 7 -145 22v85c43 -24 85 -36 124 -36c63 0 97 23 97 60c0 43 -35 61 -108 61h-36v67h41c62 0 92 14 92 48c0 30 -26 44 -77 44c-35 0 -75 -9 -120 -26v81c45 12 95 17 148 17c111 0 168 -39 168 -106
c0 -44 -30 -77 -84 -89z" />
    <glyph glyph-name="trademark" unicode="&#x2122;" horiz-adv-x="1000" 
d="M397 729v-70h-85v-212h-84v212h-84v70h253zM563 729l58 -111l58 111h111v-282h-83v213l-67 -125h-37l-67 125v-213h-84v282h111z" />
    <glyph glyph-name="twosuperior" unicode="&#xb2;" horiz-adv-x="438" 
d="M201 408h181v-82h-329v75l153 130c35 30 55 55 55 84c0 32 -25 55 -64 55c-43 0 -89 -16 -141 -45v91c56 17 109 26 159 26c107 0 165 -48 165 -117c0 -56 -31 -91 -84 -136z" />
    <glyph glyph-name="uacute" unicode="&#xfa;" horiz-adv-x="712" 
d="M78 213v334h176v-55c0 -81 -1 -149 -1 -201c0 -71 2 -116 15 -137c14 -23 38 -36 68 -36c71 0 117 57 117 159v270h175v-547h-175v79c-52 -63 -109 -93 -181 -93c-125 0 -194 78 -194 227zM434 800h138l-180 -184h-96z" />
    <glyph glyph-name="ucircumflex" unicode="&#xfb;" horiz-adv-x="712" 
d="M78 213v334h176v-55c0 -81 -1 -149 -1 -201c0 -71 2 -116 15 -137c14 -23 38 -36 68 -36c71 0 117 57 117 159v270h175v-547h-175v79c-52 -63 -109 -93 -181 -93c-125 0 -194 78 -194 227zM309 800h118l125 -184h-87l-97 110l-97 -110h-87z" />
    <glyph glyph-name="udieresis" unicode="&#xfc;" horiz-adv-x="712" 
d="M78 213v334h176v-55c0 -81 -1 -149 -1 -201c0 -71 2 -116 15 -137c14 -23 38 -36 68 -36c71 0 117 57 117 159v270h175v-547h-175v79c-52 -63 -109 -93 -181 -93c-125 0 -194 78 -194 227zM407 774h115v-120h-115v120zM214 774h115v-120h-115v120z" />
    <glyph glyph-name="ugrave" unicode="&#xf9;" horiz-adv-x="712" 
d="M78 213v334h176v-55c0 -81 -1 -149 -1 -201c0 -71 2 -116 15 -137c14 -23 38 -36 68 -36c71 0 117 57 117 159v270h175v-547h-175v79c-52 -63 -109 -93 -181 -93c-125 0 -194 78 -194 227zM302 800l138 -184h-96l-180 184h138z" />
    <glyph glyph-name="yacute" unicode="&#xfd;" horiz-adv-x="652" 
d="M12 547h175l147 -371l125 371h175l-230 -599c-43 -112 -94 -164 -203 -164h-101v115h55c55 0 80 13 96 65l5 15zM392 800h138l-180 -184h-96z" />
    <glyph glyph-name="ydieresis" unicode="&#xff;" horiz-adv-x="652" 
d="M12 547h175l147 -371l125 371h175l-230 -599c-43 -112 -94 -164 -203 -164h-101v115h55c55 0 80 13 96 65l5 15zM365 774h115v-120h-115v120zM172 774h115v-120h-115v120z" />
    <glyph glyph-name="zcaron" unicode="&#x17e;" horiz-adv-x="582" 
d="M57 547h477v-122l-288 -300h288v-125h-489v122l288 300h-276v125zM232 616l-125 184h87l97 -111l97 111h87l-125 -184h-118z" />
    </font>
</defs>
</svg>
